<?xml version="1.0" encoding="UTF-8"?><svg xmlns="http://www.w3.org/2000/svg" viewBox="0 0 256 236.73"><defs><style>.d{fill:#b100fe;}.e{fill:#fefefe;}</style></defs><g id="a"/><g id="b"><g id="c"><g><path class="d" d="M153.78,177.85c-2.14-8.1-3.05-16.35-2.9-24.74,.11-6.24,.07-12.49-.08-18.74-.1-3.69-1.39-6.43-5.14-7.51-7.39-2.1-9.69-7-9.5-14.52,.42-16.31,.24-32.64,.04-48.96-.03-2.74,.86-6.11-2.73-7.71-18.95,0-37.92-.17-56.87,.06-13.95,.15-27.75,1.73-40.84,7.03C16.22,70.69,3.93,84.6,.86,105.85c-1.43,9.86-.88,19.74,.26,29.62,2.74,23.66,16.88,36.41,40.59,36.87,14.93,.29,29.02-2.26,41.59-11.28,.5,13.4-9.47,22.84-23.82,22.91-17.06,.1-33.56-2.91-49.21-9.76-3.87-1.68-4.25-.54-4.22,2.95,.13,15.12,.15,30.26-.03,45.38-.04,3.29,1.21,4.48,4.18,5.31,12.75,3.5,25.66,6.22,38.79,7.69,27.77,3.09,54.39,1.1,78.16-16.11,12.57-9.12,22.22-19.84,25.76-35.3,2.07-1.84,1.46-4.04,.86-6.27Zm-60.74-48.99c-.84,5.56-6.24,9.09-13.84,9.15-8.51,.06-13.45-3.34-14.16-9.8-.43-3.91,.71-7.19,4.19-9.37,4.8-3.02,15.18-2.77,19.9,.53,3.33,2.31,4.5,5.58,3.91,9.5Z"/><path class="e" d="M152.92,184.12c-5.85-15.18-4.49-31.08-4.3-46.79,.06-5.16-1.13-8.19-6.37-9.18-1.5-.28-2.85-1.33-4.35-1.65-3.57-.77-4.34-2.87-4.32-6.35,.1-21.5-.05-42.99-.11-64.49-.72-5.25,1.96-6.04,6.57-5.82,8.38,.4,8.4,.11,8.35-8.36-.05-10.43,.03-20.86-.24-31.28-.08-3.15,.83-4.19,3.94-4.41C177.56,3.98,203.03,2.1,228.48,.04c3.7-.3,3.79,1.22,3.67,4.1-.59,13.72-.88,27.45-1.54,41.16-.17,3.54,.58,4.95,4.42,4.74,5.89-.32,11.82,.03,17.72-.13,2.5-.07,3.24,.71,3.23,3.22-.08,25.38-.1,50.75,.01,76.13,.01,2.98-1.2,3.39-3.71,3.34-6.78-.13-13.57,.2-20.33-.12-5.38-.26-3.23,3.58-3.76,5.99-.66,3.05,.77,3.8,3.66,3.72,6.95-.18,13.9,.03,20.85-.11,2.41-.05,3.3,.53,3.28,3.13-.11,18.94-.08,37.89-.02,56.83,0,2.02-.55,3.09-2.6,3.78-22.36,7.53-45.18,9.61-68.27,4.71-14.97-3.18-25.69-12.44-32.18-26.41Z"/></g></g></g></svg>