<?xml version="1.0" encoding="UTF-8" standalone="no"?>
<!-- Created with Inkscape (http://www.inkscape.org/) -->

<svg
   width="67.303238mm"
   height="49.369099mm"
   viewBox="0 0 67.303238 49.369099"
   version="1.1"
   id="svg1"
   xml:space="preserve"
   xmlns:xlink="http://www.w3.org/1999/xlink"
   xmlns="http://www.w3.org/2000/svg"
   xmlns:svg="http://www.w3.org/2000/svg"><defs
     id="defs1"><linearGradient
       id="linearGradient21"><stop
         style="stop-color:#12103d;stop-opacity:1;"
         offset="0"
         id="stop22" /><stop
         style="stop-color:#241866;stop-opacity:1;"
         offset="0.5"
         id="stop24" /><stop
         style="stop-color:#24243e;stop-opacity:1;"
         offset="1"
         id="stop23" /></linearGradient><linearGradient
       id="linearGradient18"><stop
         style="stop-color:#12103d;stop-opacity:1;"
         offset="0"
         id="stop18" /><stop
         style="stop-color:#241866;stop-opacity:1;"
         offset="0.5"
         id="stop21" /><stop
         style="stop-color:#24243e;stop-opacity:1;"
         offset="1"
         id="stop19" /></linearGradient><linearGradient
       xlink:href="#linearGradient18"
       id="linearGradient19"
       x1="75.844215"
       y1="173.18629"
       x2="129.69003"
       y2="173.18629"
       gradientUnits="userSpaceOnUse" /><linearGradient
       xlink:href="#linearGradient21"
       id="linearGradient23"
       x1="116.17958"
       y1="183.78613"
       x2="134.18347"
       y2="183.78613"
       gradientUnits="userSpaceOnUse" /></defs><g
     id="layer1"
     transform="translate(-71.358411,-148.50001)"><g
       id="g28"><path
         style="fill:#f9f9f9;fill-opacity:1;stroke-width:0.280506"
         d="m 136.84726,193.56332 a 10.098218,10.098218 0 0 1 -15.411,1.34924 c -0.0337,-0.0337 -0.0673,-0.0673 -0.0982,-0.10379 L 110.19919,182.16075 H 99.820455 l -11.12767,12.64802 -0.0982,0.10379 a 10.120659,10.120659 0 0 1 -7.14168,2.95653 10.098218,10.098218 0 0 1 -9.94114,-11.85138 0.19074412,0.19074412 0 0 1 0,-0.0393 l 4.59188,-23.58775 A 16.796703,16.796703 0 0 1 92.642305,148.5 H 117.3577 a 16.852804,16.852804 0 0 1 16.54985,13.81492 c 0,0.0168 0,0.0337 0,0.0505 l 4.59188,23.6102 a 0.19074412,0.19074412 0 0 1 0,0.0393 10.025287,10.025287 0 0 1 -1.65217,7.54841 z"
         id="path4-4" /><path
         style="fill:url(#linearGradient23);fill-opacity:1;stroke-width:0.280506"
         d="m 134.1039,186.81435 -2.45162,-12.62277 a 16.830364,16.830364 0 0 1 -14.29458,7.96918 h -1.17812 l 8.47128,9.62416 a 5.6353667,5.6353667 0 0 0 4.89763,1.51193 5.6101212,5.6101212 0 0 0 4.55262,-6.4825 z"
         id="path6-0" /><path
         style="fill:url(#linearGradient19);fill-opacity:1;stroke-width:0.280506"
         d="m 117.3577,177.67266 a 12.342269,12.342269 0 0 0 0,-24.68453 H 92.642305 a 12.314216,12.314216 0 0 0 -12.12066,10.202 v 0.0365 l -4.59469,23.58775 a 5.6101212,5.6101212 0 0 0 9.45305,4.96776 l 11.75882,-13.34928 a 2.2440485,2.2440485 0 0 1 1.68303,-0.76017 z"
         id="path5-6" /><path
         style="fill:#ffffff;fill-opacity:1;stroke-width:0.280506"
         d="m 98.283285,164.20837 h -2.24405 v -2.24405 a 2.2440485,2.2440485 0 0 0 -4.48809,0 v 2.24405 h -2.24405 a 2.24405,2.24405 0 0 0 0,4.4881 h 2.24405 v 2.24404 a 2.2440485,2.2440485 0 0 0 4.48809,0 v -2.24404 h 2.24405 a 2.24405,2.24405 0 0 0 0,-4.4881 z"
         id="path3-1" /><path
         style="fill:#ffffff;fill-opacity:1;stroke-width:0.280506"
         d="m 118.47973,168.69647 h -6.73215 a 2.24405,2.24405 0 0 1 0,-4.4881 h 6.73215 a 2.24405,2.24405 0 0 1 0,4.4881 z"
         id="path1-8" /></g></g></svg>
